<?xml version="1.0" encoding="UTF-8"?>
<!-- Generator: Adobe Illustrator 26.3.1, SVG Export Plug-In . SVG Version: 6.00 Build 0)  -->
<svg version="1.1" id="Réteg_1" xmlns="http://www.w3.org/2000/svg" xmlns:xlink="http://www.w3.org/1999/xlink" x="0px" y="0px" viewBox="0 0 431 269" style="enable-background:new 0 0 431 269;" xml:space="preserve">
<style type="text/css">
	.st0{fill-rule:evenodd;clip-rule:evenodd;fill:#414141;}
	.st1{fill:#414141;}
</style>
<path class="st0" d="M159.8,59.8c0-32.8,26.6-59.5,59.5-59.5c32.8,0,59.5,26.6,59.5,59.5c0,32.8-26.6,59.5-59.5,59.5  C186.5,119.3,159.8,92.7,159.8,59.8z M219.3,22.2c-20.8,0-37.6,16.8-37.6,37.6c0,20.8,16.8,37.6,37.6,37.6  c20.8,0,37.6-16.8,37.6-37.6C257,39.1,240.1,22.2,219.3,22.2z"/>
<path class="st1" d="M187.1,171.5c6.6-10.9,18.6-18.2,32.2-18.2c13.7,0,25.6,7.3,32.2,18.2h24c-8-23.3-30.2-40.1-56.2-40.1  c-26,0-48.2,16.7-56.2,40.1H187.1z"/>
<path class="st0" d="M26.6,171.5H0L56.8,3.8h36.8l56.8,167.7h-26.5L109,125H41.6L26.6,171.5z M75.1,18.8L46,107.9h58.7L75.5,18.8  H75.1z"/>
<path class="st1" d="M417.5,153.7c-9.5,12.8-26.9,19.2-52,19.2c-25.4,0-43.3-6.7-53.8-20.2c-10.5-13.6-15.7-35.2-15.7-65  c0-29.7,5.2-51.2,15.7-64.6C322.2,9.7,340.1,3,365.4,3c25.2,0,42.6,6.3,52.1,18.9c6.7,8.7,11,19.3,13,31.6h-26  c-1.6-9.3-4.6-16.5-9-21.4c-6.8-7.6-16.9-11.4-30.3-11.4c-13.7,0-24.4,4.3-31.9,12.9C325.8,42,322,60.1,322,87.7  c0,27.8,3.8,46,11.3,54.7c7.6,8.6,18.3,12.9,31.9,12.9c13.4,0,23.5-3.9,30.3-11.7c4.1-4.7,6.9-11.1,8.6-19.2h26  C427.9,135.6,423.7,145.4,417.5,153.7z"/>
<path class="st1" d="M33,220.8c2.1,1.4,3.3,3.4,3.6,6h8.1c-0.1-3-0.9-5.7-2.6-8c-1.7-2.3-4-4.2-6.9-5.5c-2.9-1.3-6.2-2-10-2  c-3.7,0-7.1,0.7-10.1,2c-3,1.3-5.3,3.2-7.1,5.6c-1.7,2.4-2.6,5.2-2.6,8.4c0,3.9,1.3,7,3.9,9.4c2.6,2.4,6.2,4.2,10.6,5.4l6.6,1.8  c2,0.5,3.8,1.1,5.4,1.8c1.6,0.7,2.9,1.6,3.8,2.6c0.9,1.1,1.4,2.4,1.4,4.1c0,1.8-0.5,3.4-1.6,4.8c-1.1,1.3-2.5,2.4-4.4,3.2  c-1.9,0.7-4,1.1-6.4,1.1c-2.2,0-4.2-0.3-6-1c-1.8-0.7-3.3-1.6-4.4-3c-1.1-1.3-1.8-3-2-5H3.9c0.2,3.4,1.1,6.3,2.9,8.7  c1.7,2.4,4.1,4.3,7.2,5.6c3.1,1.3,6.7,2,10.9,2c4.4,0,8.1-0.7,11.2-2.1c3.1-1.4,5.4-3.4,7.1-5.8c1.6-2.5,2.5-5.3,2.5-8.4  c0-2.5-0.5-4.7-1.5-6.5c-1-1.8-2.3-3.3-3.9-4.5c-1.6-1.2-3.3-2.2-5.2-2.9c-1.9-0.7-3.7-1.3-5.5-1.8l-5.5-1.4c-1.1-0.3-2.2-0.6-3.4-1  c-1.2-0.4-2.3-1-3.3-1.6c-1-0.7-1.8-1.5-2.5-2.4c-0.6-1-0.9-2.1-0.9-3.4c0-1.6,0.5-3,1.4-4.2c0.9-1.3,2.2-2.2,3.9-2.9  c1.7-0.7,3.7-1.1,5.9-1.1C28.2,218.7,30.9,219.4,33,220.8z"/>
<path class="st1" d="M84.6,212.1h-9.6l20.3,33.9V268h8.4v-21.9l20.3-33.9h-9.6l-14.6,25.4h-0.6L84.6,212.1z"/>
<path class="st1" d="M186.2,226.8c-0.3-2.6-1.5-4.6-3.6-6c-2.1-1.4-4.8-2.2-8-2.2c-2.3,0-4.3,0.4-5.9,1.1c-1.7,0.7-3,1.7-3.9,2.9  c-0.9,1.2-1.4,2.6-1.4,4.2c0,1.3,0.3,2.5,0.9,3.4c0.6,1,1.5,1.8,2.5,2.4c1,0.6,2.1,1.2,3.3,1.6c1.2,0.4,2.3,0.8,3.4,1l5.5,1.4  c1.8,0.4,3.6,1,5.5,1.8c1.9,0.7,3.6,1.7,5.2,2.9c1.6,1.2,2.9,2.7,3.9,4.5c1,1.8,1.5,4,1.5,6.5c0,3.2-0.8,6-2.5,8.4  c-1.6,2.5-4,4.4-7.1,5.8c-3.1,1.4-6.8,2.1-11.2,2.1c-4.2,0-7.8-0.7-10.9-2c-3.1-1.3-5.4-3.2-7.2-5.6c-1.7-2.5-2.7-5.4-2.9-8.7h8.5  c0.2,2,0.8,3.7,2,5c1.2,1.3,2.6,2.3,4.4,3c1.8,0.6,3.8,1,6,1c2.4,0,4.5-0.4,6.4-1.1c1.9-0.8,3.3-1.8,4.4-3.2c1.1-1.4,1.6-3,1.6-4.8  c0-1.7-0.5-3-1.4-4.1c-0.9-1.1-2.2-1.9-3.8-2.6c-1.6-0.7-3.4-1.3-5.4-1.8l-6.6-1.8c-4.5-1.2-8-3-10.6-5.4c-2.6-2.4-3.9-5.5-3.9-9.4  c0-3.2,0.9-6,2.6-8.4c1.7-2.4,4.1-4.3,7.1-5.6c3-1.3,6.3-2,10.1-2c3.8,0,7.1,0.7,10,2c2.9,1.3,5.2,3.2,6.9,5.5c1.7,2.3,2.5,5,2.6,8  H186.2z"/>
<path class="st1" d="M226.2,212.1v7.3h17.4V268h8.4v-48.6h17.4v-7.3H226.2z"/>
<path class="st1" d="M302.8,268v-55.9h35v7.3h-26.6v17H336v7.2h-24.8v17.1h26.9v7.3H302.8z"/>
<path class="st1" d="M383.1,212.1h-10.2V268h8v-40.4h0.5l16.5,40.4h6.7l16.5-40.3h0.5V268h8v-55.9h-10.2l-17.8,43.4h-0.7  L383.1,212.1z"/>
</svg>