<svg width="609" height="569" viewBox="0 0 609 569" fill="none" xmlns="http://www.w3.org/2000/svg">
<g id="undraw_app_data_re_vg5c" clip-path="url(#clip0_228_509)">
<g id="Group 89">
<path id="Path 1321" d="M448.681 135.214H445.554V49.5681C445.554 36.4218 440.332 23.814 431.037 14.5182C421.743 5.22234 409.136 0 395.992 0H214.562C201.417 0 188.811 5.22234 179.516 14.5182C170.222 23.814 165 36.4218 165 49.5681V519.429C165 532.575 170.222 545.183 179.516 554.479C188.811 563.775 201.417 568.997 214.562 568.997H395.992C409.136 568.997 421.743 563.775 431.037 554.479C440.332 545.183 445.554 532.575 445.554 519.429V196.178H448.681V135.214Z" fill="#171717"/>
<path id="Path 1322" d="M397.991 12.8948H374.309C375.398 15.5654 375.815 18.4631 375.521 21.3325C375.227 24.202 374.231 26.955 372.623 29.3491C371.014 31.7432 368.841 33.7048 366.296 35.0612C363.751 36.4175 360.911 37.1269 358.027 37.1269H254.089C251.205 37.1266 248.365 36.4171 245.82 35.0608C243.276 33.7046 241.103 31.7432 239.495 29.3494C237.886 26.9557 236.891 24.203 236.597 21.334C236.302 18.465 236.718 15.5676 237.807 12.8971H215.684C205.868 12.8971 196.453 16.7972 189.512 23.7395C182.57 30.6817 178.671 40.0975 178.671 49.9153V519.084C178.671 528.902 182.57 538.317 189.512 545.26C196.453 552.202 205.868 556.102 215.684 556.102H397.984C407.801 556.102 417.216 552.202 424.157 545.26C431.098 538.317 434.998 528.902 434.998 519.084V49.9129C434.998 40.0951 431.098 30.6794 424.157 23.7371C417.216 16.7949 407.801 12.8948 397.984 12.8948H397.991Z" fill="white"/>
<g id="Group 94">
<g id="Group 92">
<path id="Path 1323" d="M216.581 156.935C216.071 156.928 215.564 157.001 215.091 157.149C214.617 157.297 214.186 157.517 213.822 157.796C213.459 158.075 213.17 158.408 212.973 158.775C212.775 159.142 212.674 159.536 212.674 159.935C212.674 160.333 212.775 160.727 212.973 161.094C213.17 161.461 213.459 161.794 213.822 162.073C214.186 162.353 214.617 162.572 215.091 162.72C215.564 162.868 216.071 162.941 216.581 162.934H397.758C398.263 162.942 398.765 162.871 399.236 162.727C399.707 162.582 400.136 162.367 400.5 162.093C400.863 161.819 401.154 161.492 401.356 161.13C401.557 160.768 401.665 160.378 401.673 159.984C401.682 159.589 401.59 159.197 401.404 158.83C401.218 158.464 400.941 158.129 400.589 157.846C400.237 157.563 399.817 157.336 399.353 157.18C398.888 157.024 398.389 156.94 397.884 156.935H216.583H216.581Z" fill="#E6E6E6"/>
<path id="Path 39" d="M416.635 180.325H198.048C196.975 180.324 195.946 179.897 195.187 179.138C194.428 178.379 194.001 177.35 194 176.277V122.048C194.001 120.975 194.428 119.946 195.187 119.187C195.946 118.428 196.975 118.001 198.048 118H416.635C417.708 118.001 418.737 118.428 419.496 119.187C420.255 119.946 420.682 120.975 420.683 122.048V176.278C420.681 177.351 420.255 178.38 419.496 179.138C418.737 179.897 417.708 180.324 416.635 180.325ZM198.048 119.619C197.404 119.62 196.786 119.876 196.331 120.331C195.876 120.787 195.62 121.404 195.619 122.048V176.278C195.62 176.922 195.876 177.539 196.331 177.995C196.786 178.45 197.404 178.706 198.048 178.707H416.635C417.279 178.706 417.897 178.45 418.352 177.995C418.807 177.539 419.063 176.922 419.064 176.278V122.048C419.063 121.404 418.807 120.787 418.352 120.331C417.897 119.876 417.279 119.62 416.635 119.619H198.048Z" fill="#CCCCCC"/>
<path id="Path 40" d="M216.581 137.935C216.071 137.928 215.564 138.001 215.091 138.149C214.617 138.297 214.186 138.517 213.822 138.796C213.459 139.075 213.17 139.408 212.973 139.775C212.775 140.142 212.674 140.536 212.674 140.935C212.674 141.333 212.775 141.727 212.973 142.094C213.17 142.461 213.459 142.794 213.822 143.073C214.186 143.353 214.617 143.572 215.091 143.72C215.564 143.868 216.071 143.941 216.581 143.934H397.758C398.263 143.942 398.765 143.871 399.236 143.727C399.707 143.582 400.136 143.367 400.5 143.093C400.863 142.819 401.154 142.492 401.356 142.13C401.557 141.768 401.665 141.378 401.673 140.984C401.682 140.589 401.59 140.197 401.404 139.83C401.218 139.464 400.941 139.129 400.589 138.846C400.237 138.563 399.817 138.336 399.353 138.18C398.888 138.024 398.389 137.94 397.884 137.935H216.583H216.581Z" fill="#E6E6E6"/>
</g>
<g id="Group 93">
<path id="Path 1323_2" d="M216.581 231.935C216.071 231.928 215.564 232.001 215.091 232.149C214.617 232.297 214.186 232.517 213.822 232.796C213.459 233.075 213.17 233.408 212.973 233.775C212.775 234.142 212.674 234.536 212.674 234.935C212.674 235.333 212.775 235.727 212.973 236.094C213.17 236.461 213.459 236.794 213.822 237.073C214.186 237.353 214.617 237.572 215.091 237.72C215.564 237.868 216.071 237.941 216.581 237.934H397.758C398.263 237.942 398.765 237.871 399.236 237.727C399.707 237.582 400.136 237.367 400.5 237.093C400.863 236.819 401.154 236.492 401.356 236.13C401.557 235.768 401.665 235.378 401.673 234.984C401.682 234.589 401.59 234.197 401.404 233.83C401.218 233.464 400.941 233.129 400.589 232.846C400.237 232.563 399.817 232.336 399.353 232.18C398.888 232.024 398.389 231.94 397.884 231.935H216.583H216.581Z" fill="#E6E6E6"/>
<path id="Path 39_2" d="M416.635 255.325H198.048C196.975 255.324 195.946 254.897 195.187 254.138C194.428 253.379 194.001 252.35 194 251.277V197.048C194.001 195.975 194.428 194.946 195.187 194.187C195.946 193.428 196.975 193.001 198.048 193H416.635C417.708 193.001 418.737 193.428 419.496 194.187C420.255 194.946 420.682 195.975 420.683 197.048V251.278C420.681 252.351 420.255 253.38 419.496 254.138C418.737 254.897 417.708 255.324 416.635 255.325ZM198.048 194.619C197.404 194.62 196.786 194.876 196.331 195.331C195.876 195.787 195.62 196.404 195.619 197.048V251.278C195.62 251.922 195.876 252.539 196.331 252.995C196.786 253.45 197.404 253.706 198.048 253.707H416.635C417.279 253.706 417.897 253.45 418.352 252.995C418.807 252.539 419.063 251.922 419.064 251.278V197.048C419.063 196.404 418.807 195.787 418.352 195.331C417.897 194.876 417.279 194.62 416.635 194.619H198.048Z" fill="#CCCCCC"/>
<path id="Path 40_2" d="M216.581 212.935C216.071 212.928 215.564 213.001 215.091 213.149C214.617 213.297 214.186 213.517 213.822 213.796C213.459 214.075 213.17 214.408 212.973 214.775C212.775 215.142 212.674 215.536 212.674 215.935C212.674 216.333 212.775 216.727 212.973 217.094C213.17 217.461 213.459 217.794 213.822 218.073C214.186 218.353 214.617 218.572 215.091 218.72C215.564 218.868 216.071 218.941 216.581 218.934H397.758C398.263 218.942 398.765 218.871 399.236 218.727C399.707 218.582 400.136 218.367 400.5 218.093C400.863 217.819 401.154 217.492 401.356 217.13C401.557 216.768 401.665 216.378 401.673 215.984C401.682 215.589 401.59 215.197 401.404 214.83C401.218 214.464 400.941 214.129 400.589 213.846C400.237 213.563 399.817 213.336 399.353 213.18C398.888 213.024 398.389 212.94 397.884 212.935H216.583H216.581Z" fill="#E6E6E6"/>
</g>
<path id="Path 1324" d="M197.631 89.0011C197.026 88.9835 196.426 89.1773 195.864 89.5714C195.303 89.9655 194.792 90.5518 194.361 91.2963C193.93 92.0408 193.588 92.9286 193.354 93.9078C193.12 94.887 193 95.9381 193 96.9999C193 98.0616 193.12 99.1127 193.354 100.092C193.588 101.071 193.93 101.959 194.361 102.703C194.792 103.448 195.303 104.034 195.864 104.428C196.426 104.822 197.026 105.016 197.631 104.999H412.359C412.958 105.019 413.553 104.831 414.111 104.446C414.668 104.061 415.177 103.487 415.608 102.756C416.04 102.025 416.384 101.152 416.623 100.187C416.862 99.222 416.99 98.1836 416.999 97.1315C417.009 96.0793 416.901 95.0342 416.68 94.0558C416.46 93.0774 416.131 92.185 415.714 91.4297C415.297 90.6745 414.799 90.0713 414.249 89.6545C413.699 89.2378 413.107 89.0157 412.508 89.0011H197.633H197.631Z" fill="#F5B861"/>
</g>
<g id="Group 95">
<g id="Group 92_2">
<path id="Path 1323_3" d="M216.581 382.935C216.071 382.928 215.564 383.001 215.091 383.149C214.617 383.297 214.186 383.517 213.822 383.796C213.459 384.075 213.17 384.408 212.973 384.775C212.775 385.142 212.674 385.536 212.674 385.935C212.674 386.333 212.775 386.727 212.973 387.094C213.17 387.461 213.459 387.794 213.822 388.073C214.186 388.353 214.617 388.572 215.091 388.72C215.564 388.868 216.071 388.941 216.581 388.934H397.758C398.263 388.942 398.765 388.871 399.236 388.727C399.707 388.582 400.136 388.367 400.5 388.093C400.863 387.819 401.154 387.492 401.356 387.13C401.557 386.768 401.665 386.378 401.673 385.984C401.682 385.589 401.59 385.197 401.404 384.83C401.218 384.464 400.941 384.129 400.589 383.846C400.237 383.563 399.817 383.336 399.353 383.18C398.888 383.024 398.389 382.94 397.884 382.935H216.583H216.581Z" fill="#E6E6E6"/>
<path id="Path 39_3" d="M416.635 406.325H198.048C196.975 406.324 195.946 405.897 195.187 405.138C194.428 404.379 194.001 403.35 194 402.277V348.048C194.001 346.975 194.428 345.946 195.187 345.187C195.946 344.428 196.975 344.001 198.048 344H416.635C417.708 344.001 418.737 344.428 419.496 345.187C420.255 345.946 420.682 346.975 420.683 348.048V402.278C420.681 403.351 420.255 404.38 419.496 405.138C418.737 405.897 417.708 406.324 416.635 406.325ZM198.048 345.619C197.404 345.62 196.786 345.876 196.331 346.331C195.876 346.787 195.62 347.404 195.619 348.048V402.278C195.62 402.922 195.876 403.539 196.331 403.995C196.786 404.45 197.404 404.706 198.048 404.707H416.635C417.279 404.706 417.897 404.45 418.352 403.995C418.807 403.539 419.063 402.922 419.064 402.278V348.048C419.063 347.404 418.807 346.787 418.352 346.331C417.897 345.876 417.279 345.62 416.635 345.619H198.048Z" fill="#CCCCCC"/>
<path id="Path 40_3" d="M216.581 363.935C216.071 363.928 215.564 364.001 215.091 364.149C214.617 364.297 214.186 364.517 213.822 364.796C213.459 365.075 213.17 365.408 212.973 365.775C212.775 366.142 212.674 366.536 212.674 366.935C212.674 367.333 212.775 367.727 212.973 368.094C213.17 368.461 213.459 368.794 213.822 369.073C214.186 369.353 214.617 369.572 215.091 369.72C215.564 369.868 216.071 369.941 216.581 369.934H397.758C398.263 369.942 398.765 369.871 399.236 369.727C399.707 369.582 400.136 369.367 400.5 369.093C400.863 368.819 401.154 368.492 401.356 368.13C401.557 367.768 401.665 367.378 401.673 366.984C401.682 366.589 401.59 366.197 401.404 365.83C401.218 365.464 400.941 365.129 400.589 364.846C400.237 364.563 399.817 364.336 399.353 364.18C398.888 364.024 398.389 363.94 397.884 363.935H216.583H216.581Z" fill="#E6E6E6"/>
</g>
<g id="Group 93_2">
<path id="Path 1323_4" d="M216.581 457.935C216.071 457.928 215.564 458.001 215.091 458.149C214.617 458.297 214.186 458.517 213.822 458.796C213.459 459.075 213.17 459.408 212.973 459.775C212.775 460.142 212.674 460.536 212.674 460.935C212.674 461.333 212.775 461.727 212.973 462.094C213.17 462.461 213.459 462.794 213.822 463.073C214.186 463.353 214.617 463.572 215.091 463.72C215.564 463.868 216.071 463.941 216.581 463.934H397.758C398.263 463.942 398.765 463.871 399.236 463.727C399.707 463.582 400.136 463.367 400.5 463.093C400.863 462.819 401.154 462.492 401.356 462.13C401.557 461.768 401.665 461.378 401.673 460.984C401.682 460.589 401.59 460.197 401.404 459.83C401.218 459.464 400.941 459.129 400.589 458.846C400.237 458.563 399.817 458.336 399.353 458.18C398.888 458.024 398.389 457.94 397.884 457.935H216.583H216.581Z" fill="#E6E6E6"/>
<path id="Path 39_4" d="M416.635 481.325H198.048C196.975 481.324 195.946 480.897 195.187 480.138C194.428 479.379 194.001 478.35 194 477.277V423.048C194.001 421.975 194.428 420.946 195.187 420.187C195.946 419.428 196.975 419.001 198.048 419H416.635C417.708 419.001 418.737 419.428 419.496 420.187C420.255 420.946 420.682 421.975 420.683 423.048V477.278C420.681 478.351 420.255 479.38 419.496 480.138C418.737 480.897 417.708 481.324 416.635 481.325ZM198.048 420.619C197.404 420.62 196.786 420.876 196.331 421.331C195.876 421.787 195.62 422.404 195.619 423.048V477.278C195.62 477.922 195.876 478.539 196.331 478.995C196.786 479.45 197.404 479.706 198.048 479.707H416.635C417.279 479.706 417.897 479.45 418.352 478.995C418.807 478.539 419.063 477.922 419.064 477.278V423.048C419.063 422.404 418.807 421.787 418.352 421.331C417.897 420.876 417.279 420.62 416.635 420.619H198.048Z" fill="#CCCCCC"/>
<path id="Path 40_4" d="M216.581 438.935C216.071 438.928 215.564 439.001 215.091 439.149C214.617 439.297 214.186 439.517 213.822 439.796C213.459 440.075 213.17 440.408 212.973 440.775C212.775 441.142 212.674 441.536 212.674 441.935C212.674 442.333 212.775 442.727 212.973 443.094C213.17 443.461 213.459 443.794 213.822 444.073C214.186 444.353 214.617 444.572 215.091 444.72C215.564 444.868 216.071 444.941 216.581 444.934H397.758C398.263 444.942 398.765 444.871 399.236 444.727C399.707 444.582 400.136 444.367 400.5 444.093C400.863 443.819 401.154 443.492 401.356 443.13C401.557 442.768 401.665 442.378 401.673 441.984C401.682 441.589 401.59 441.197 401.404 440.83C401.218 440.464 400.941 440.129 400.589 439.846C400.237 439.563 399.817 439.336 399.353 439.18C398.888 439.024 398.389 438.94 397.884 438.935H216.583H216.581Z" fill="#E6E6E6"/>
</g>
<path id="Path 1324_2" d="M197.631 315.001C197.026 314.983 196.426 315.177 195.864 315.571C195.303 315.965 194.792 316.552 194.361 317.296C193.93 318.041 193.588 318.929 193.354 319.908C193.12 320.887 193 321.938 193 323C193 324.062 193.12 325.113 193.354 326.092C193.588 327.071 193.93 327.959 194.361 328.703C194.792 329.448 195.303 330.034 195.864 330.428C196.426 330.822 197.026 331.016 197.631 330.999H412.359C412.958 331.019 413.553 330.831 414.111 330.446C414.668 330.061 415.177 329.487 415.608 328.756C416.04 328.025 416.384 327.152 416.623 326.187C416.862 325.222 416.99 324.184 416.999 323.131C417.009 322.079 416.901 321.034 416.68 320.056C416.46 319.077 416.131 318.185 415.714 317.43C415.297 316.674 414.799 316.071 414.249 315.655C413.699 315.238 413.107 315.016 412.508 315.001H197.633H197.631Z" fill="#9747FF"/>
</g>
</g>
</g>
<defs>
<clipPath id="clip0_228_509">
<rect width="609" height="568.997" fill="white"/>
</clipPath>
</defs>
</svg>
