<svg width="25" height="26" viewBox="0 0 25 26" fill="none" xmlns="http://www.w3.org/2000/svg">
<path d="M12.5049 7.84937C9.39941 7.84937 6.89453 10.3542 6.89453 13.4597C6.89453 16.5652 9.39941 19.0701 12.5049 19.0701C15.6104 19.0701 18.1152 16.5652 18.1152 13.4597C18.1152 10.3542 15.6104 7.84937 12.5049 7.84937ZM12.5049 17.1072C10.498 17.1072 8.85742 15.4714 8.85742 13.4597C8.85742 11.448 10.4932 9.81226 12.5049 9.81226C14.5166 9.81226 16.1523 11.448 16.1523 13.4597C16.1523 15.4714 14.5117 17.1072 12.5049 17.1072ZM19.6533 7.61987C19.6533 8.34741 19.0674 8.92847 18.3447 8.92847C17.6172 8.92847 17.0361 8.34253 17.0361 7.61987C17.0361 6.89722 17.6221 6.31128 18.3447 6.31128C19.0674 6.31128 19.6533 6.89722 19.6533 7.61987ZM23.3691 8.948C23.2861 7.19507 22.8857 5.64233 21.6016 4.36304C20.3223 3.08374 18.7695 2.68335 17.0166 2.59546C15.21 2.49292 9.79492 2.49292 7.98828 2.59546C6.24023 2.67847 4.6875 3.07886 3.40332 4.35815C2.11914 5.63745 1.72363 7.19019 1.63574 8.94312C1.5332 10.7498 1.5332 16.1648 1.63574 17.9714C1.71875 19.7244 2.11914 21.2771 3.40332 22.5564C4.6875 23.8357 6.23535 24.2361 7.98828 24.324C9.79492 24.4265 15.21 24.4265 17.0166 24.324C18.7695 24.241 20.3223 23.8406 21.6016 22.5564C22.8809 21.2771 23.2813 19.7244 23.3691 17.9714C23.4717 16.1648 23.4717 10.7546 23.3691 8.948ZM21.0352 19.9099C20.6543 20.8669 19.917 21.6042 18.9551 21.99C17.5146 22.5613 14.0967 22.4294 12.5049 22.4294C10.9131 22.4294 7.49023 22.5564 6.05469 21.99C5.09766 21.6091 4.36035 20.8718 3.97461 19.9099C3.40332 18.4695 3.53516 15.0515 3.53516 13.4597C3.53516 11.8679 3.4082 8.44507 3.97461 7.00952C4.35547 6.05249 5.09277 5.31519 6.05469 4.92944C7.49512 4.35815 10.9131 4.48999 12.5049 4.48999C14.0967 4.48999 17.5195 4.36304 18.9551 4.92944C19.9121 5.3103 20.6494 6.04761 21.0352 7.00952C21.6064 8.44995 21.4746 11.8679 21.4746 13.4597C21.4746 15.0515 21.6064 18.4744 21.0352 19.9099Z" fill="#171717"/>
</svg>
