<svg width="25" height="26" viewBox="0 0 25 26" fill="none" xmlns="http://www.w3.org/2000/svg">
<g clip-path="url(#clip0_405_308)">
<path d="M6.45898 22.8398H1.92383V8.23535H6.45898V22.8398ZM4.18896 6.24316C2.73877 6.24316 1.5625 5.04199 1.5625 3.5918C1.5625 2.89521 1.83922 2.22716 2.33177 1.73461C2.82433 1.24205 3.49238 0.965332 4.18896 0.965332C4.88555 0.965332 5.5536 1.24205 6.04616 1.73461C6.53871 2.22716 6.81543 2.89521 6.81543 3.5918C6.81543 5.04199 5.63867 6.24316 4.18896 6.24316ZM23.4326 22.8398H18.9072V15.7305C18.9072 14.0361 18.873 11.8633 16.5493 11.8633C14.1914 11.8633 13.8301 13.7041 13.8301 15.6084V22.8398H9.29981V8.23535H13.6494V10.2275H13.7129C14.3184 9.08008 15.7974 7.86914 18.0039 7.86914C22.5938 7.86914 23.4375 10.8916 23.4375 14.8174V22.8398H23.4326Z" fill="#171717"/>
</g>
<defs>
<clipPath id="clip0_405_308">
<rect width="25" height="25" fill="white" transform="translate(0 0.964844)"/>
</clipPath>
</defs>
</svg>
