<svg width="38" height="38" viewBox="0 0 38 38" fill="none" xmlns="http://www.w3.org/2000/svg">
<path fill-rule="evenodd" clip-rule="evenodd" d="M0 0H38V38H0V0Z" fill="#2E6EB7"/>
<path fill-rule="evenodd" clip-rule="evenodd" d="M13.7617 31.9882V18.3701L38.0001 18.402V22.1494L35.2095 25.1473L38.0001 28.1771V32.0042H33.5351L31.1591 29.389L28.7991 32.0201L13.7617 31.9882Z" fill="white"/>
<path fill-rule="evenodd" clip-rule="evenodd" d="M15.3887 30.4894V19.8691H24.3983V22.3249H18.3068V23.9833H24.2548V26.3912H18.3068V28.0177H24.3983V30.4894H15.3887Z" fill="#2E6EB7"/>
<path fill-rule="evenodd" clip-rule="evenodd" d="M24.3496 30.4894L29.3408 25.1793L24.3496 19.8691H28.2086L31.2543 23.2338L34.316 19.8691H37.9996V19.9489L33.1201 25.1793L37.9996 30.3459V30.4894H34.2682L31.1746 27.0928L28.097 30.4894H24.3496Z" fill="#2E6EB7"/>
<path fill-rule="evenodd" clip-rule="evenodd" d="M14.8942 6.28271H20.7465L22.7876 10.939V6.28271H30.0113L31.2551 9.77495L32.4989 6.28271H38.0004V19.9008H8.89844L14.8942 6.28271Z" fill="white"/>
<path fill-rule="evenodd" clip-rule="evenodd" d="M16.0092 7.76562L11.2891 18.3858H14.5262L15.4192 16.265H20.2349L21.1279 18.3858H24.4448L19.7565 7.76562H16.0092ZM16.4078 13.8731L17.827 10.4924L19.2463 13.8731H16.4078Z" fill="#2E6EB7"/>
<path fill-rule="evenodd" clip-rule="evenodd" d="M24.3828 18.3858V7.76562L28.9435 7.78157L31.2716 14.3036L33.6317 7.76562H38.0009V18.3858L35.1944 18.4018V11.1143L32.5314 18.3858H29.964L27.2531 11.0825V18.3858H24.3828Z" fill="#2E6EB7"/>
</svg>