<svg width="46" height="29" viewBox="0 0 46 29" fill="none" xmlns="http://www.w3.org/2000/svg">
<path d="M29.1183 3.06104H16.7141V25.6159H29.1183V3.06104Z" fill="#F26522"/>
<path d="M17.5102 14.3385C17.5102 9.76552 19.6286 5.68829 22.9224 3.06102C20.5102 1.14014 17.4735 0 14.1673 0C6.34285 0 0 6.41947 0 14.3385C0 22.2575 6.34285 28.6769 14.1673 28.6769C17.4735 28.6769 20.5102 27.5368 22.9224 25.6159C19.6163 22.9886 17.5102 18.9114 17.5102 14.3385Z" fill="#E51B24"/>
<path d="M45.8451 14.3385C45.8451 22.2575 39.5022 28.6769 31.6777 28.6769C28.3716 28.6769 25.3349 27.5368 22.9226 25.6159C26.2165 22.9886 28.3349 18.9114 28.3349 14.3385C28.3349 9.76552 26.2165 5.68829 22.9226 3.06102C25.3349 1.14014 28.3716 0 31.6777 0C39.5022 0 45.8451 6.41947 45.8451 14.3385Z" fill="#F99F1C"/>
<path d="M44.4979 23.2365V22.7779H44.6816V22.6788H44.2163V22.7779H44.4V23.2365H44.4979ZM45.404 23.2365V22.6788H45.2571L45.0979 23.063L44.9387 22.6788H44.7918V23.2365H44.8898V22.8151L45.0489 23.1745H45.1591L45.3183 22.8151V23.2365H45.404Z" fill="black"/>
</svg>