<svg width="44" height="35" viewBox="0 0 44 35" fill="none" xmlns="http://www.w3.org/2000/svg">
<path d="M13.2509 34.2987V32.0219C13.2509 31.1553 12.7139 30.5824 11.8431 30.5824C11.3786 30.5677 10.9142 30.7146 10.5804 31.2287C10.3336 30.8321 9.94178 30.5824 9.39026 30.5824C9.0129 30.5824 8.63556 30.6999 8.34528 31.1259V30.6706H7.56152V34.2987H8.34528V32.2863C8.34528 31.6547 8.69359 31.3169 9.2306 31.3169C9.75309 31.3169 10.0144 31.6547 10.0144 32.2717V34.2987H10.7981V32.2863C10.7981 31.6547 11.1609 31.3169 11.6834 31.3169C12.2204 31.3169 12.4672 31.6547 12.4672 32.2717V34.2987H13.2509ZM17.6631 32.492V30.6706H16.8793V31.1112C16.6326 30.7881 16.2552 30.5824 15.7473 30.5824C14.7458 30.5824 13.9475 31.3756 13.9475 32.492C13.9475 33.6083 14.7313 34.4016 15.7473 34.4016C16.2552 34.4016 16.6326 34.1959 16.8793 33.8727V34.3134H17.6631V32.492ZM14.7458 32.492C14.7458 31.8457 15.1522 31.3316 15.8343 31.3316C16.4874 31.3316 16.9228 31.831 16.9228 32.492C16.9228 33.153 16.4874 33.6524 15.8343 33.6524C15.1667 33.6524 14.7458 33.1236 14.7458 32.492ZM34.3828 30.5677C34.6586 30.5677 34.9198 30.6118 35.152 30.7146C35.3842 30.8174 35.5874 30.9496 35.7616 31.1112C35.9358 31.2875 36.0664 31.4784 36.168 31.7135C36.2696 31.9485 36.3131 32.1982 36.3131 32.4773C36.3131 32.7564 36.2696 33.0061 36.168 33.2411C36.0664 33.4761 35.9358 33.6818 35.7616 33.8434C35.5874 34.0196 35.3842 34.1518 35.152 34.24C34.9198 34.3428 34.6586 34.3869 34.3828 34.3869C34.107 34.3869 33.8458 34.3428 33.6136 34.24C33.3813 34.1371 33.1782 34.0049 33.004 33.8434C32.8298 33.6671 32.6992 33.4761 32.5976 33.2411C32.496 33.0061 32.4525 32.7564 32.4525 32.4773C32.4525 32.1982 32.496 31.9485 32.5976 31.7135C32.6992 31.4784 32.8298 31.2728 33.004 31.1112C33.1782 30.935 33.3813 30.8028 33.6136 30.7146C33.8458 30.6265 34.0925 30.5677 34.3828 30.5677ZM34.3828 31.3169C34.2231 31.3169 34.078 31.3462 33.9329 31.405C33.8022 31.4638 33.6716 31.5372 33.57 31.64C33.4684 31.7428 33.3959 31.8604 33.3378 32.0073C33.2798 32.1541 33.2507 32.301 33.2507 32.4773C33.2507 32.6536 33.2798 32.8005 33.3378 32.9473C33.3959 33.0942 33.4684 33.2117 33.57 33.3146C33.6716 33.4174 33.7877 33.4908 33.9329 33.5496C34.0635 33.6083 34.2231 33.6377 34.3828 33.6377C34.5424 33.6377 34.6876 33.6083 34.8327 33.5496C34.9634 33.4908 35.094 33.4174 35.1956 33.3146C35.2972 33.2117 35.3697 33.0942 35.4278 32.9473C35.4858 32.8005 35.5149 32.6536 35.5149 32.4773C35.5149 32.301 35.4858 32.1541 35.4278 32.0073C35.3697 31.8604 35.2972 31.7428 35.1956 31.64C35.094 31.5372 34.9779 31.4638 34.8327 31.405C34.6876 31.3462 34.5424 31.3169 34.3828 31.3169ZM21.9156 32.492C21.9156 31.3609 21.2189 30.5824 20.2174 30.5824C19.1725 30.5824 18.4323 31.3609 18.4323 32.492C18.4323 33.6524 19.2015 34.4016 20.2755 34.4016C20.8125 34.4016 21.306 34.2694 21.7414 33.8874L21.364 33.2999C21.0593 33.5496 20.6819 33.6818 20.3191 33.6818C19.8111 33.6818 19.3611 33.4468 19.245 32.7858H21.9156C21.9011 32.6976 21.9156 32.5948 21.9156 32.492ZM19.2305 32.1688C19.3176 31.64 19.6224 31.2875 20.1884 31.2875C20.6964 31.2875 21.0157 31.6106 21.1028 32.1688H19.2305ZM25.1956 31.596C24.9779 31.4638 24.528 31.2875 24.0781 31.2875C23.6572 31.2875 23.396 31.4491 23.396 31.7135C23.396 31.9632 23.6717 32.0219 24.0055 32.066L24.3684 32.1248C25.1521 32.2423 25.6166 32.5801 25.6166 33.2117C25.6166 33.9021 25.0215 34.4016 23.9765 34.4016C23.396 34.4016 22.8444 34.2547 22.4235 33.9315L22.7864 33.3146C23.0476 33.5202 23.4395 33.6965 23.9765 33.6965C24.5135 33.6965 24.7892 33.5349 24.7892 33.2558C24.7892 33.0502 24.5861 32.9327 24.1652 32.8739L23.8023 32.8151C23.0041 32.6976 22.5687 32.3304 22.5687 31.7429C22.5687 31.0231 23.1492 30.5824 24.0636 30.5824C24.6296 30.5824 25.1521 30.7146 25.5295 30.9643L25.1956 31.596ZM28.9547 31.3903H27.6775V33.0355C27.6775 33.4027 27.8081 33.6377 28.2 33.6377C28.4031 33.6377 28.6644 33.5643 28.8966 33.4321L29.1289 34.1078C28.8821 34.284 28.4903 34.3869 28.1564 34.3869C27.2276 34.3869 26.9083 33.8874 26.9083 33.0355V31.3756H26.1826V30.6559H26.9083V29.5542H27.692V30.6559H28.9692V31.3903H28.9547ZM31.6542 30.5824C31.8139 30.5824 32.0316 30.6118 32.2057 30.6852L31.959 31.4344C31.7994 31.3609 31.6252 31.3462 31.4655 31.3462C30.9576 31.3462 30.6963 31.6841 30.6963 32.2863V34.2987H29.9126V30.6706H30.6818V31.1112C30.914 30.7881 31.2043 30.5824 31.6542 30.5824ZM37.0678 33.7699C37.1114 33.7699 37.1694 33.7846 37.213 33.7993C37.2565 33.814 37.3 33.8434 37.3291 33.8727C37.3581 33.9021 37.3871 33.9462 37.4016 33.9903C37.4162 34.0343 37.4307 34.0784 37.4307 34.1371C37.4307 34.1812 37.4162 34.24 37.4016 34.284C37.3871 34.3281 37.3581 34.3722 37.3291 34.4016C37.3 34.4309 37.2565 34.4603 37.213 34.475C37.1694 34.4897 37.1259 34.5044 37.0678 34.5044C37.0098 34.5044 36.9662 34.4897 36.9227 34.475C36.8791 34.4603 36.8356 34.4309 36.8066 34.4016C36.7775 34.3722 36.7485 34.3281 36.734 34.284C36.7195 34.24 36.705 34.1959 36.705 34.1371C36.705 34.0931 36.7195 34.0343 36.734 33.9903C36.7485 33.9462 36.7775 33.9021 36.8066 33.8727C36.8356 33.8434 36.8791 33.814 36.9227 33.7993C36.9662 33.7846 37.0098 33.7699 37.0678 33.7699ZM37.0678 34.4162C37.1114 34.4162 37.1404 34.4016 37.1694 34.3869C37.1984 34.3722 37.2275 34.3575 37.2565 34.3281C37.2855 34.2987 37.3 34.2694 37.3145 34.24C37.3291 34.2106 37.3291 34.1665 37.3291 34.1371C37.3291 34.0931 37.3145 34.0637 37.3145 34.0343C37.3 34.005 37.2855 33.9756 37.2565 33.9462C37.2275 33.9168 37.1984 33.9021 37.1694 33.8874C37.1404 33.8727 37.0968 33.8727 37.0678 33.8727C37.0243 33.8727 36.9952 33.8727 36.9517 33.8874C36.9227 33.9021 36.8937 33.9168 36.8646 33.9462C36.8356 33.9756 36.8211 34.005 36.8066 34.0343C36.7921 34.0637 36.7921 34.1078 36.7921 34.1371C36.7921 34.1812 36.7921 34.2106 36.8066 34.24C36.8211 34.2694 36.8356 34.2987 36.8646 34.3281C36.8937 34.3575 36.9227 34.3722 36.9517 34.3869C36.9952 34.4162 37.0243 34.4162 37.0678 34.4162ZM37.0823 33.9756C37.1259 33.9756 37.1549 33.9903 37.1839 34.0049C37.213 34.0196 37.213 34.049 37.213 34.0784C37.213 34.1078 37.1985 34.1225 37.1839 34.1518C37.1694 34.1665 37.1404 34.1812 37.1114 34.1812L37.213 34.3134H37.1259L37.0243 34.1812H36.9953V34.3134H36.9227V33.9756H37.0823ZM37.0098 34.0343V34.1225H37.0968C37.1114 34.1225 37.1259 34.1225 37.1404 34.1078C37.1549 34.0931 37.1549 34.0931 37.1549 34.0784C37.1549 34.0637 37.1549 34.049 37.1404 34.049C37.1259 34.049 37.1114 34.0343 37.0968 34.0343H37.0098Z" fill="black"/>
<path d="M27.8372 2.93774H15.9941V24.4864H27.8372V2.93774Z" fill="#7773B5"/>
<path d="M16.7488 13.7048C16.7488 9.32748 18.7662 5.43491 21.9156 2.9231C19.608 1.08698 16.7052 0 13.5412 0C6.06669 0 0 6.13998 0 13.7048C0 21.2696 6.06669 27.4096 13.5412 27.4096C16.7052 27.4096 19.608 26.3079 21.9156 24.4865C18.7662 21.9747 16.7488 18.0821 16.7488 13.7048Z" fill="#E91D25"/>
<path d="M42.5394 22.1949V21.7543H42.7136V21.6661H42.2637V21.7543H42.4378V22.1949H42.5394ZM43.4103 22.1949V21.6661H43.2797L43.12 22.0334L42.9604 21.6661H42.8297V22.1949H42.9313V21.7983L43.0765 22.1509H43.1781L43.3232 21.7983V22.1949H43.4103Z" fill="#12A0DB"/>
<path d="M43.8311 13.7048C43.8311 21.2696 37.7644 27.4096 30.2899 27.4096C27.1259 27.4096 24.2232 26.3079 21.9155 24.4865C25.065 21.9747 27.0824 18.0821 27.0824 13.7048C27.0824 9.32748 25.065 5.43491 21.9155 2.9231C24.2232 1.08698 27.1259 0 30.2899 0C37.7644 0 43.8311 6.13998 43.8311 13.7048Z" fill="#12A0DB"/>
</svg>