<svg width="91" height="38" viewBox="0 0 91 38" fill="none" xmlns="http://www.w3.org/2000/svg">
<g clip-path="url(#clip0_351_144)">
<path d="M90.1143 0H0V38H90.1143V0Z" fill="#0097DB"/>
<path d="M76.3419 26.3286V17.8025C76.3419 17.1958 76.1177 16.7488 75.6693 16.4614C75.2209 16.1899 74.6604 16.0462 74.0038 16.0462C73.6835 16.0462 73.3632 16.0782 73.0749 16.1261C72.7706 16.174 72.5304 16.2378 72.3383 16.3177V26.3286H68.751V14.8647C69.3916 14.6093 70.1763 14.4017 71.1051 14.242C72.034 14.0664 73.0589 13.9866 74.1479 13.9866C76.0376 13.9866 77.4789 14.2899 78.4718 14.8967C79.4647 15.5034 79.9612 16.4614 79.9612 17.7546V26.3286H76.3419Z" fill="white"/>
<path d="M44.5369 26.3286V14.1462C45.738 14.1462 46.9551 14.2101 48.1241 14.3538V26.3286H44.5369Z" fill="white"/>
<path d="M48.3163 10.921C48.3163 11.3521 48.1241 11.7353 47.7237 12.0547C47.3394 12.374 46.8589 12.5177 46.3144 12.5177C45.7539 12.5177 45.2895 12.358 44.9051 12.0547C44.5208 11.7353 44.3286 11.3681 44.3286 10.921C44.3286 10.4899 44.5208 10.1068 44.9051 9.78743C45.2895 9.4681 45.7539 9.3244 46.3144 9.3244C46.8749 9.3244 47.3394 9.48407 47.7237 9.78743C48.1241 10.1068 48.3163 10.4899 48.3163 10.921Z" fill="white"/>
<path d="M42.3107 16.3815C41.8143 16.2219 41.2858 16.1261 40.7253 16.1261C40.1648 16.1101 39.7003 16.1899 39.348 16.3496V26.3446H35.7607V14.8647C36.4334 14.5933 37.2021 14.3698 38.0829 14.2101C38.9637 14.0504 40.0527 13.9866 41.3498 13.9866C41.6381 13.9866 41.9264 13.9866 42.2467 14.0025C42.5509 14.0185 42.8072 14.0345 42.9833 14.0664L42.3107 16.3815Z" fill="white"/>
<path d="M20.7871 19.8941C20.7871 21.9538 20.1946 23.5504 19.0255 24.7C17.8564 25.8496 16.1589 26.4244 13.9489 26.4244C12.8118 26.4244 11.851 26.3445 11.0502 26.1689C10.2495 25.9933 9.62492 25.7857 9.17651 25.5462V8.90924H12.7478V14.4975C13.0521 14.3857 13.4204 14.2739 13.8528 14.1781C14.2852 14.0824 14.7976 14.0345 15.4062 14.0345C16.2069 14.0345 16.9276 14.1781 17.6002 14.4655C18.2728 14.7529 18.8333 15.1521 19.3138 15.663C19.7942 16.1739 20.1625 16.7807 20.4188 17.4992C20.643 18.2176 20.7871 19.016 20.7871 19.8941ZM17.1198 20.0857C17.1198 19.495 17.0717 18.9521 16.9756 18.4571C16.8795 17.9462 16.7194 17.5151 16.4952 17.1479C16.271 16.7807 15.9827 16.4933 15.6304 16.2857C15.2781 16.0781 14.8617 15.9823 14.3492 15.9823C13.6766 15.9823 13.1481 16.0781 12.7318 16.2697V24.1891C12.8919 24.2689 13.0841 24.3168 13.3083 24.3647C13.5325 24.4126 13.8047 24.4286 14.141 24.4286C15.15 24.4286 15.9027 24.0294 16.3991 23.2471C16.8795 22.4328 17.1198 21.379 17.1198 20.0857Z" fill="white"/>
<path d="M33.791 26.3286C33.791 26.3286 28.1539 26.4084 27.6414 26.4084C26.8246 26.4084 26.072 26.2647 25.3833 25.9933C24.6947 25.7219 24.1022 25.3227 23.6057 24.8278C23.1093 24.3168 22.7249 23.7101 22.4366 22.9916C22.1644 22.2731 22.0203 21.4588 22.0203 20.5647C22.0203 19.5748 22.1644 18.6647 22.4527 17.8664C22.7409 17.0521 23.1733 16.3656 23.7498 15.7908C24.3264 15.216 25.063 14.7689 25.9278 14.4496C26.7926 14.1462 27.8176 13.9866 28.9706 13.9866C29.9955 13.9866 30.9404 14.0664 31.7892 14.242C32.654 14.4177 33.3106 14.5454 33.791 14.8009V26.3286ZM30.1877 16.2378C30.0276 16.158 29.8354 16.0941 29.6112 16.0303C29.387 15.9664 29.0987 15.9345 28.7784 15.9345C27.7535 15.9345 27.0008 16.3177 26.4883 17.0681C25.9919 17.8185 25.7357 18.9202 25.7357 20.3731C25.7357 23.1353 26.7125 24.5084 28.6823 24.5084C28.9706 24.5084 29.2429 24.4765 29.5151 24.4286C29.7873 24.3807 30.0116 24.3009 30.1877 24.221V16.2378Z" fill="white"/>
<path d="M58.6777 28.8832C63.338 28.7714 67.0213 24.7798 66.9092 19.9739C66.8772 18.3134 66.3807 16.7647 65.564 15.4714C63.9465 15.4554 62.313 15.9344 61.7045 16.0941C62.8255 17.0361 63.5461 18.4571 63.5782 20.0538C63.6262 22.2731 62.345 24.205 60.4873 25.0193C60.2952 24.5403 60.2151 24.3647 60.0229 23.9017C58.1973 25.0033 55.5548 26.2327 52.5281 26.3605C54.1135 27.9731 56.2915 28.9311 58.6777 28.8832Z" fill="white"/>
<path d="M58.2614 11.4798C53.6011 11.5916 49.9177 15.5832 50.0298 20.3891C50.0619 22.0496 50.5583 23.5983 51.3751 24.8916C52.9925 24.9076 54.626 24.4286 55.2346 24.2689C54.1136 23.3269 53.3929 21.9059 53.3609 20.3092C53.3128 18.0899 54.594 16.158 56.4517 15.3437C56.6439 15.8227 56.7239 15.9983 56.9161 16.4613C58.7418 15.3597 61.3842 14.1302 64.411 14.0025C62.8415 12.3899 60.6635 11.416 58.2614 11.4798Z" fill="white"/>
</g>
<defs>
<clipPath id="clip0_351_144">
<rect width="90.1143" height="38" fill="white"/>
</clipPath>
</defs>
</svg>