<svg width="609" height="569" viewBox="0 0 609 569" fill="none" xmlns="http://www.w3.org/2000/svg">
<g id="undraw_app_data_re_vg5c" clip-path="url(#clip0_228_459)">
<g id="Group 89">
<path id="Path 1321" d="M448.681 135.214H445.554V49.5681C445.554 36.4218 440.332 23.814 431.037 14.5182C421.743 5.22234 409.136 0 395.992 0H214.562C201.417 0 188.811 5.22234 179.516 14.5182C170.222 23.814 165 36.4218 165 49.5681V519.429C165 532.575 170.222 545.183 179.516 554.479C188.811 563.775 201.417 568.997 214.562 568.997H395.992C409.136 568.997 421.743 563.775 431.037 554.479C440.332 545.183 445.554 532.575 445.554 519.429V196.178H448.681V135.214Z" fill="#171717"/>
<path id="Path 1322" d="M397.991 12.8948H374.309C375.398 15.5654 375.815 18.4631 375.521 21.3325C375.227 24.202 374.231 26.955 372.623 29.3491C371.014 31.7432 368.841 33.7048 366.296 35.0612C363.751 36.4175 360.911 37.1269 358.027 37.1269H254.089C251.205 37.1266 248.365 36.4171 245.82 35.0608C243.276 33.7046 241.103 31.7432 239.495 29.3494C237.886 26.9557 236.891 24.203 236.597 21.334C236.302 18.465 236.718 15.5676 237.807 12.8971H215.684C205.868 12.8971 196.453 16.7972 189.512 23.7395C182.57 30.6817 178.671 40.0975 178.671 49.9153V519.084C178.671 528.902 182.57 538.317 189.512 545.26C196.453 552.202 205.868 556.102 215.684 556.102H397.984C407.801 556.102 417.216 552.202 424.157 545.26C431.098 538.317 434.998 528.902 434.998 519.084V49.9129C434.998 40.0951 431.098 30.6794 424.157 23.7371C417.216 16.7949 407.801 12.8948 397.984 12.8948H397.991Z" fill="white"/>
<path id="Path 39" d="M419.961 381.391H201.374C200.301 381.39 199.272 380.963 198.513 380.204C197.754 379.445 197.327 378.416 197.326 377.343V323.114C197.327 322.041 197.754 321.012 198.513 320.253C199.272 319.494 200.301 319.067 201.374 319.066H419.961C421.034 319.067 422.063 319.494 422.822 320.253C423.581 321.012 424.008 322.041 424.009 323.114V377.343C424.008 378.416 423.581 379.445 422.822 380.204C422.063 380.963 421.034 381.39 419.961 381.391ZM201.374 320.685C200.73 320.685 200.113 320.941 199.657 321.397C199.202 321.852 198.946 322.47 198.945 323.114V377.343C198.946 377.987 199.202 378.605 199.657 379.06C200.113 379.516 200.73 379.772 201.374 379.772H419.961C420.605 379.772 421.223 379.516 421.678 379.06C422.133 378.605 422.389 377.987 422.39 377.343V323.114C422.389 322.47 422.133 321.852 421.678 321.397C421.223 320.941 420.605 320.685 419.961 320.685H201.374Z" fill="#CCCCCC"/>
<path id="Ellipse 5" d="M229.709 367.23C239.098 367.23 246.71 359.618 246.71 350.227C246.71 340.836 239.098 333.224 229.709 333.224C220.319 333.224 212.708 340.836 212.708 350.227C212.708 359.618 220.319 367.23 229.709 367.23Z" fill="#9747FF"/>
<path id="Path 40" d="M268.974 338.893C268.598 338.887 268.224 338.955 267.875 339.095C267.526 339.234 267.208 339.442 266.939 339.706C266.671 339.97 266.458 340.284 266.313 340.631C266.168 340.978 266.093 341.35 266.093 341.727C266.093 342.103 266.168 342.475 266.313 342.822C266.458 343.169 266.671 343.483 266.939 343.747C267.208 344.011 267.526 344.219 267.875 344.358C268.224 344.498 268.598 344.567 268.974 344.56H402.558C402.931 344.567 403.302 344.501 403.648 344.365C403.995 344.228 404.312 344.025 404.58 343.766C404.848 343.507 405.063 343.198 405.211 342.856C405.36 342.514 405.439 342.146 405.446 341.773C405.452 341.4 405.384 341.03 405.247 340.684C405.11 340.337 404.906 340.021 404.646 339.753C404.387 339.486 404.077 339.272 403.734 339.124C403.392 338.977 403.024 338.898 402.651 338.893H268.975H268.974Z" fill="#E6E6E6"/>
<path id="Path 41" d="M268.974 355.896C268.222 355.896 267.501 356.195 266.97 356.726C266.438 357.258 266.14 357.979 266.14 358.73C266.14 359.482 266.438 360.203 266.97 360.734C267.501 361.266 268.222 361.564 268.974 361.564H402.558C402.931 361.571 403.302 361.505 403.648 361.369C403.995 361.232 404.312 361.029 404.58 360.77C404.848 360.511 405.063 360.202 405.211 359.86C405.36 359.518 405.439 359.15 405.446 358.777C405.452 358.405 405.384 358.034 405.247 357.688C405.11 357.341 404.906 357.025 404.646 356.757C404.387 356.49 404.077 356.276 403.734 356.128C403.392 355.981 403.024 355.902 402.651 355.897H268.975L268.974 355.896Z" fill="#E6E6E6"/>
<path id="Path 42" d="M419.961 472.076H201.374C200.301 472.074 199.272 471.647 198.513 470.888C197.754 470.13 197.327 469.101 197.326 468.027V413.799C197.327 412.725 197.754 411.696 198.513 410.937C199.272 410.178 200.301 409.751 201.374 409.75H419.961C421.034 409.751 422.063 410.178 422.822 410.937C423.581 411.696 424.008 412.725 424.009 413.799V468.028C424.008 469.101 423.581 470.13 422.822 470.889C422.063 471.647 421.034 472.074 419.961 472.076ZM201.374 411.369C200.73 411.37 200.113 411.626 199.657 412.082C199.202 412.537 198.946 413.154 198.945 413.799V468.028C198.946 468.672 199.202 469.29 199.657 469.745C200.113 470.2 200.73 470.456 201.374 470.457H419.961C420.605 470.456 421.223 470.2 421.678 469.745C422.133 469.29 422.389 468.672 422.39 468.028V413.799C422.389 413.154 422.133 412.537 421.678 412.082C421.223 411.626 420.605 411.37 419.961 411.369H201.374Z" fill="#CCCCCC"/>
<path id="Ellipse 6" d="M229.709 457.916C239.098 457.916 246.71 450.303 246.71 440.912C246.71 431.522 239.098 423.909 229.709 423.909C220.319 423.909 212.708 431.522 212.708 440.912C212.708 450.303 220.319 457.916 229.709 457.916Z" fill="#9747FF"/>
<path id="Path 43" d="M268.974 429.578C268.222 429.578 267.501 429.876 266.97 430.408C266.438 430.939 266.14 431.66 266.14 432.412C266.14 433.163 266.438 433.884 266.97 434.416C267.501 434.947 268.222 435.246 268.974 435.246H402.558C402.931 435.253 403.302 435.186 403.648 435.05C403.995 434.914 404.312 434.71 404.58 434.451C404.848 434.192 405.063 433.883 405.211 433.541C405.36 433.199 405.439 432.831 405.446 432.459C405.452 432.086 405.384 431.716 405.247 431.369C405.11 431.022 404.906 430.706 404.646 430.439C404.387 430.171 404.077 429.957 403.734 429.81C403.392 429.662 403.024 429.583 402.651 429.578H268.975L268.974 429.578Z" fill="#E6E6E6"/>
<path id="Path 44" d="M268.974 446.581C268.222 446.581 267.501 446.879 266.97 447.411C266.438 447.942 266.14 448.663 266.14 449.415C266.14 450.167 266.438 450.888 266.97 451.419C267.501 451.951 268.222 452.249 268.974 452.249H402.558C402.931 452.256 403.302 452.19 403.648 452.053C403.995 451.917 404.312 451.714 404.58 451.455C404.848 451.196 405.063 450.886 405.211 450.545C405.36 450.203 405.439 449.835 405.446 449.462C405.452 449.089 405.384 448.719 405.247 448.372C405.11 448.026 404.906 447.71 404.646 447.442C404.387 447.174 404.077 446.961 403.734 446.813C403.392 446.665 403.024 446.587 402.651 446.582H268.975L268.974 446.581Z" fill="#E6E6E6"/>
<path id="Path 45" d="M306.067 268.858C285.678 268.866 266.121 260.774 251.698 246.361C237.274 231.948 229.166 212.395 229.157 192.004V191.94C229.157 191.779 229.157 191.609 229.167 191.448C229.401 149.324 263.901 115.019 306.067 115.019C326.465 115.018 346.028 123.121 360.452 137.545C374.877 151.97 382.981 171.534 382.982 191.935C382.983 212.335 374.881 231.9 360.458 246.326C346.036 260.752 326.474 268.858 306.076 268.859H306.067V268.858ZM306.067 116.635C286.19 116.68 267.133 124.567 253.037 138.584C238.941 152.601 230.945 171.615 230.787 191.495C230.778 191.667 230.778 191.808 230.778 191.936C230.776 206.831 235.191 221.392 243.464 233.778C251.737 246.164 263.497 255.818 277.256 261.52C291.015 267.221 306.156 268.714 320.763 265.809C335.371 262.904 348.789 255.733 359.321 245.201C369.852 234.669 377.025 221.25 379.931 206.641C382.837 192.032 381.347 176.889 375.648 163.127C369.949 149.366 360.297 137.603 347.914 129.328C335.531 121.052 320.972 116.635 306.078 116.635H306.067Z" fill="#CCCCCC"/>
<path id="Path 711" d="M266.563 169L344.434 169C344.531 168.999 344.628 169.007 344.724 169.023L307.895 232.821C307.67 233.218 307.344 233.548 306.95 233.778C306.556 234.008 306.107 234.129 305.651 234.129C305.195 234.129 304.747 234.008 304.352 233.778C303.958 233.548 303.632 233.218 303.407 232.821L278.69 190.006L277.506 187.957L266.563 169Z" fill="#7ED5F3"/>
</g>
</g>
<defs>
<clipPath id="clip0_228_459">
<rect width="609" height="568.997" fill="white"/>
</clipPath>
</defs>
</svg>
