<svg width="309" height="84" viewBox="0 0 309 84" fill="none" xmlns="http://www.w3.org/2000/svg">
<path d="M84.6414 28.0027V0L0.653618 0V28.0027L84.6414 28.0027Z" fill="#FFF200"/>
<path d="M84.6328 84V55.9973L0.645073 55.9973V84L84.6328 84Z" fill="#FFF200"/>
<path d="M0.641357 52.2662V49.5721L84.6291 31.7336V34.4074L0.641357 52.2662Z" fill="black"/>
<path d="M164.412 49.6537V56.0625H140.675V49.6537L154.86 34.2237H141.246V27.8761H161.84L164.187 34.2237L149.594 49.6537H164.412Z" fill="black"/>
<path d="M214.682 27.8761L205.947 56.1441H195.558L189.721 38.2036L183.924 56.1441H173.536L164.8 27.8761H172.74L178.699 49.0414L185.965 27.8761H193.517L200.62 49.0414L206.743 27.8761H214.682V27.8761Z" fill="black"/>
<path d="M213.927 41.8775C213.927 33.6522 220.622 26.9985 229.255 26.9985C237.766 26.9985 244.522 33.591 244.522 41.8775C244.522 50.2865 237.705 56.981 229.255 56.981C220.724 56.981 213.927 50.1845 213.927 41.8775ZM237.236 41.9388C237.236 37.122 233.48 33.9992 229.296 33.9992C225.03 33.9992 221.234 37.1832 221.234 41.9388C221.234 46.7556 225.092 50.0008 229.296 50.0008C233.439 50.0008 237.236 46.8168 237.236 41.9388Z" fill="black"/>
<path d="M276.464 44.4492H254.952C256.033 48.7149 259.83 50.062 262.503 50.062C266.769 50.062 268.973 48.368 270.729 47.0617L275.219 52.1642C273.525 53.4705 269.259 56.981 262.85 56.981C253.707 56.981 247.298 50.6743 247.298 41.8775C247.298 32.6317 254.278 26.9985 262.218 26.9985C270.627 26.9985 276.403 32.8971 276.464 41.6326V44.4492V44.4492ZM255.115 38.9997H268.729C268.055 36.1015 265.667 33.8972 262.136 33.8972C258.523 33.8768 256.033 35.9178 255.115 38.9997Z" fill="black"/>
<path d="M279.281 15.3851H286.771V56.1442H279.281V15.3851Z" fill="black"/>
<path d="M301.079 22.3042V27.8761H308.794V34.7952H301.079V56.1442H293.588V34.7952H290.363V27.8761H293.588V15.3851H308.794V22.3042H301.079Z" fill="black"/>
</svg>